<?xml version="1.0" encoding="iso-8859-1"?>
<!-- Generator: Adobe Illustrator 19.0.0, SVG Export Plug-In . SVG Version: 6.00 Build 0)  -->
<svg version="1.1" id="Capa_1" xmlns="http://www.w3.org/2000/svg" xmlns:xlink="http://www.w3.org/1999/xlink" x="0px" y="0px"
	 viewBox="0 0 512 512" style="enable-background:new 0 0 512 512;" xml:space="preserve">
<g>
	<path style="fill:#7F6E5D;" d="M423.724,35.31v44.138H311.172V35.31c-0.003-9.366,3.717-18.349,10.339-24.971
		C328.134,3.717,337.117-0.003,346.483,0h41.931c9.366-0.003,18.349,3.717,24.971,10.339
		C420.007,16.962,423.727,25.945,423.724,35.31z"/>
	<path style="fill:#CBB292;" d="M388.414,0c-9.366-0.003-18.349,3.717-24.971,10.339s-10.342,15.605-10.339,24.971v353.103H105.931
		c-9.739-0.029-17.627-7.916-17.655-17.655V35.31c-0.003-9.366,3.717-18.349,10.339-24.971C105.238,3.717,114.221-0.003,123.586,0
		L388.414,0z"/>
	<g>
		<path style="fill:#E6E7E8;" d="M132.414,220.69h52.966c4.875,0,8.828-3.952,8.828-8.828s-3.952-8.828-8.828-8.828h-52.966
			c-4.875,0-8.828,3.952-8.828,8.828S127.538,220.69,132.414,220.69z"/>
		<path style="fill:#E6E7E8;" d="M308.966,203.034H220.69c-4.875,0-8.828,3.952-8.828,8.828s3.952,8.828,8.828,8.828h88.276
			c4.875,0,8.828-3.952,8.828-8.828S313.841,203.034,308.966,203.034z"/>
		<path style="fill:#E6E7E8;" d="M211.862,238.345h-26.483c-4.875,0-8.828,3.952-8.828,8.828c0,4.875,3.952,8.828,8.828,8.828
			h26.483c4.875,0,8.828-3.952,8.828-8.828C220.69,242.297,216.737,238.345,211.862,238.345z"/>
		<path style="fill:#E6E7E8;" d="M132.414,256h17.655c4.875,0,8.828-3.952,8.828-8.828c0-4.875-3.952-8.828-8.828-8.828h-17.655
			c-4.875,0-8.828,3.952-8.828,8.828C123.586,252.048,127.538,256,132.414,256z"/>
		<path style="fill:#E6E7E8;" d="M132.414,291.31h35.31c4.875,0,8.828-3.952,8.828-8.828s-3.952-8.828-8.828-8.828h-35.31
			c-4.875,0-8.828,3.952-8.828,8.828S127.538,291.31,132.414,291.31z"/>
		<path style="fill:#E6E7E8;" d="M203.034,308.966h-70.621c-4.875,0-8.828,3.952-8.828,8.828c0,4.875,3.952,8.828,8.828,8.828
			h70.621c4.875,0,8.828-3.952,8.828-8.828C211.862,312.918,207.91,308.966,203.034,308.966z"/>
		<path style="fill:#E6E7E8;" d="M211.862,273.655h-8.828c-4.875,0-8.828,3.952-8.828,8.828s3.952,8.828,8.828,8.828h8.828
			c4.875,0,8.828-3.952,8.828-8.828S216.737,273.655,211.862,273.655z"/>
	</g>
	<circle style="fill:#4482C3;" cx="216.276" cy="101.517" r="66.207"/>
	<path style="fill:#7F5B53;" d="M410.635,381.881L372.323,512H247.854c-20.922-61.617-0.794-141.241-0.794-141.241v-97.103
		c0-14.626,11.857-26.483,26.483-26.483c14.626,0,26.483,11.857,26.483,26.483v88.276c0,14.626,11.857,26.483,26.483,26.483
		c14.626,0,26.483-11.857,26.483-26.483V220.69c0,0,53.142,73.534,60.999,134.621C415.093,364.308,413.941,373.44,410.635,381.881z"
		/>
	<path style="fill:#E6E7E8;" d="M247.172,145.655v14.301c-19.296,10.358-42.497,10.358-61.793,0v-14.301
		c0.019-17.056,13.841-30.878,30.897-30.897C233.306,114.84,247.091,128.625,247.172,145.655z"/>
	<circle style="fill:#FFFFFF;" cx="216.276" cy="92.69" r="22.069"/>
</g>
<g>
</g>
<g>
</g>
<g>
</g>
<g>
</g>
<g>
</g>
<g>
</g>
<g>
</g>
<g>
</g>
<g>
</g>
<g>
</g>
<g>
</g>
<g>
</g>
<g>
</g>
<g>
</g>
<g>
</g>
</svg>
